<?xml version="1.0" encoding="UTF-8" standalone="no"?><!DOCTYPE svg PUBLIC "-//W3C//DTD SVG 1.1//EN" "http://www.w3.org/Graphics/SVG/1.1/DTD/svg11.dtd"><svg width="100%" height="100%" viewBox="0 0 408 127" version="1.1" xmlns="http://www.w3.org/2000/svg" xmlns:xlink="http://www.w3.org/1999/xlink" xml:space="preserve" xmlns:serif="http://www.serif.com/" style="fill-rule:evenodd;clip-rule:evenodd;stroke-linejoin:round;stroke-miterlimit:1.5;"><rect id="sojourner-charging" x="0" y="0" width="406.75" height="126.424" style="fill:none;"/><clipPath id="_clip1"><rect id="sojourner-charging1" serif:id="sojourner-charging" x="0" y="0" width="406.75" height="126.424"/></clipPath><g clip-path="url(#_clip1)"><g><circle cx="36.5" cy="106.989" r="7.125" style="fill:#e5e3ce;stroke:#000;stroke-width:2.25px;"/><circle cx="67.625" cy="106.989" r="7.125" style="fill:#e5e3ce;stroke:#000;stroke-width:2.25px;"/><circle cx="98.75" cy="106.989" r="7.125" style="fill:#e5e3ce;stroke:#000;stroke-width:2.25px;"/><rect x="59.75" y="81.489" width="36.75" height="18.375" style="fill:#ffc85f;stroke:#000;stroke-width:2.25px;"/><path d="M36.5,106.989l9.75,-9l21.375,9" style="fill:none;stroke:#000;stroke-width:2.25px;"/><path d="M46.25,97.989l36,-10.5l16.5,19.5" style="fill:none;stroke:#000;stroke-width:2.25px;"/><path d="M103.25,81.489l-78,0" style="fill:none;stroke:#000;stroke-width:2.25px;"/><path d="M86,81.489l0,-26.25" style="fill:none;stroke:#000;stroke-width:2.25px;"/><rect x="85.25" y="54.489" width="1.5" height="1.5" style="fill:none;stroke:#000;stroke-width:2.25px;"/><rect x="96.5" y="87.489" width="5.25" height="5.25" style="fill:#e5e3ce;stroke:#000;stroke-width:2.25px;"/></g><g><g><path d="M0.5,114.114l405.75,0" style="fill:none;stroke:#929386;stroke-width:2.25px;"/><path d="M7.25,114.114l-6.75,6.75" style="fill:none;stroke:#929386;stroke-width:2.25px;"/><path d="M14,114.114l-6.75,6.75" style="fill:none;stroke:#929386;stroke-width:2.25px;"/><path d="M20.75,114.114l-6.75,6.75" style="fill:none;stroke:#929386;stroke-width:2.25px;"/><path d="M27.5,114.114l-6.75,6.75" style="fill:none;stroke:#929386;stroke-width:2.25px;"/><path d="M34.25,114.114l-6.75,6.75" style="fill:none;stroke:#929386;stroke-width:2.25px;"/><path d="M41,114.114l-6.75,6.75" style="fill:none;stroke:#929386;stroke-width:2.25px;"/><path d="M47.75,114.114l-6.75,6.75" style="fill:none;stroke:#929386;stroke-width:2.25px;"/><path d="M54.5,114.114l-6.75,6.75" style="fill:none;stroke:#929386;stroke-width:2.25px;"/><path d="M61.25,114.114l-6.75,6.75" style="fill:none;stroke:#929386;stroke-width:2.25px;"/><path d="M68,114.114l-6.75,6.75" style="fill:none;stroke:#929386;stroke-width:2.25px;"/><path d="M74.75,114.114l-6.75,6.75" style="fill:none;stroke:#929386;stroke-width:2.25px;"/><path d="M81.5,114.114l-6.75,6.75" style="fill:none;stroke:#929386;stroke-width:2.25px;"/><path d="M88.25,114.114l-6.75,6.75" style="fill:none;stroke:#929386;stroke-width:2.25px;"/><path d="M95,114.114l-6.75,6.75" style="fill:none;stroke:#929386;stroke-width:2.25px;"/><path d="M101.75,114.114l-6.75,6.75" style="fill:none;stroke:#929386;stroke-width:2.25px;"/><path d="M108.5,114.114l-6.75,6.75" style="fill:none;stroke:#929386;stroke-width:2.25px;"/><path d="M115.25,114.114l-6.75,6.75" style="fill:none;stroke:#929386;stroke-width:2.25px;"/><path d="M122,114.114l-6.75,6.75" style="fill:none;stroke:#929386;stroke-width:2.25px;"/><path d="M128.75,114.114l-6.75,6.75" style="fill:none;stroke:#929386;stroke-width:2.25px;"/><path d="M135.5,114.114l-6.75,6.75" style="fill:none;stroke:#929386;stroke-width:2.25px;"/><path d="M142.25,114.114l-6.75,6.75" style="fill:none;stroke:#929386;stroke-width:2.25px;"/><path d="M149,114.114l-6.75,6.75" style="fill:none;stroke:#929386;stroke-width:2.25px;"/><path d="M155.75,114.114l-6.75,6.75" style="fill:none;stroke:#929386;stroke-width:2.25px;"/><path d="M162.5,114.114l-6.75,6.75" style="fill:none;stroke:#929386;stroke-width:2.25px;"/><path d="M169.25,114.114l-6.75,6.75" style="fill:none;stroke:#929386;stroke-width:2.25px;"/><path d="M176,114.114l-6.75,6.75" style="fill:none;stroke:#929386;stroke-width:2.25px;"/><path d="M182.75,114.114l-6.75,6.75" style="fill:none;stroke:#929386;stroke-width:2.25px;"/><path d="M189.5,114.114l-6.75,6.75" style="fill:none;stroke:#929386;stroke-width:2.25px;"/><path d="M196.25,114.114l-6.75,6.75" style="fill:none;stroke:#929386;stroke-width:2.25px;"/><path d="M203,114.114l-6.75,6.75" style="fill:none;stroke:#929386;stroke-width:2.25px;"/><path d="M209.75,114.114l-6.75,6.75" style="fill:none;stroke:#929386;stroke-width:2.25px;"/><path d="M216.5,114.114l-6.75,6.75" style="fill:none;stroke:#929386;stroke-width:2.25px;"/><path d="M223.25,114.114l-6.75,6.75" style="fill:none;stroke:#929386;stroke-width:2.25px;"/><path d="M230,114.114l-6.75,6.75" style="fill:none;stroke:#929386;stroke-width:2.25px;"/><path d="M236.75,114.114l-6.75,6.75" style="fill:none;stroke:#929386;stroke-width:2.25px;"/><path d="M243.5,114.114l-6.75,6.75" style="fill:none;stroke:#929386;stroke-width:2.25px;"/><path d="M250.25,114.114l-6.75,6.75" style="fill:none;stroke:#929386;stroke-width:2.25px;"/><path d="M257,114.114l-6.75,6.75" style="fill:none;stroke:#929386;stroke-width:2.25px;"/><path d="M263.75,114.114l-6.75,6.75" style="fill:none;stroke:#929386;stroke-width:2.25px;"/><path d="M270.5,114.114l-6.75,6.75" style="fill:none;stroke:#929386;stroke-width:2.25px;"/><path d="M277.25,114.114l-6.75,6.75" style="fill:none;stroke:#929386;stroke-width:2.25px;"/><path d="M284,114.114l-6.75,6.75" style="fill:none;stroke:#929386;stroke-width:2.25px;"/><path d="M290.75,114.114l-6.75,6.75" style="fill:none;stroke:#929386;stroke-width:2.25px;"/><path d="M297.5,114.114l-6.75,6.75" style="fill:none;stroke:#929386;stroke-width:2.25px;"/><path d="M304.25,114.114l-6.75,6.75" style="fill:none;stroke:#929386;stroke-width:2.25px;"/><path d="M311,114.114l-6.75,6.75" style="fill:none;stroke:#929386;stroke-width:2.25px;"/><path d="M317.75,114.114l-6.75,6.75" style="fill:none;stroke:#929386;stroke-width:2.25px;"/><path d="M324.5,114.114l-6.75,6.75" style="fill:none;stroke:#929386;stroke-width:2.25px;"/><path d="M331.25,114.114l-6.75,6.75" style="fill:none;stroke:#929386;stroke-width:2.25px;"/><path d="M338,114.114l-6.75,6.75" style="fill:none;stroke:#929386;stroke-width:2.25px;"/><path d="M344.75,114.114l-6.75,6.75" style="fill:none;stroke:#929386;stroke-width:2.25px;"/><path d="M351.5,114.114l-6.75,6.75" style="fill:none;stroke:#929386;stroke-width:2.25px;"/><path d="M358.25,114.114l-6.75,6.75" style="fill:none;stroke:#929386;stroke-width:2.25px;"/><path d="M365,114.114l-6.75,6.75" style="fill:none;stroke:#929386;stroke-width:2.25px;"/><path d="M371.75,114.114l-6.75,6.75" style="fill:none;stroke:#929386;stroke-width:2.25px;"/><path d="M378.5,114.114l-6.75,6.75" style="fill:none;stroke:#929386;stroke-width:2.25px;"/><path d="M385.25,114.114l-6.75,6.75" style="fill:none;stroke:#929386;stroke-width:2.25px;"/><path d="M392,114.114l-6.75,6.75" style="fill:none;stroke:#929386;stroke-width:2.25px;"/><path d="M398.75,114.114l-6.75,6.75" style="fill:none;stroke:#929386;stroke-width:2.25px;"/><path d="M405.5,114.114l-6.75,6.75" style="fill:none;stroke:#929386;stroke-width:2.25px;"/></g><path d="M240.668,85.24l0.121,0.006l0.121,0.014l0.121,0.019l0.119,0.026l0.117,0.033l0.116,0.039l0.113,0.045l0.11,0.051l0.108,0.057l0.104,0.063l0.101,0.068l0.097,0.074l0.093,0.079l0.089,0.084l8.485,8.485l0.083,0.088l0.079,0.093l0.074,0.097l0.068,0.101l0.063,0.105l0.057,0.107l0.051,0.111l0.046,0.113l0.038,0.115l0.033,0.118l0.026,0.119l0.02,0.12l0.013,0.121l0.007,0.122l0,0.122l-0.007,0.121l-0.013,0.122l-0.02,0.12l-0.026,0.119l-0.033,0.117l-0.038,0.116l-0.046,0.113l-0.051,0.111l-0.057,0.107l-0.063,0.105l-0.068,0.101l-0.074,0.097l-0.079,0.092l-0.083,0.089l-7.201,7.2l-0.078,0.077l-0.084,0.081l-0.086,0.08l-0.075,0.068l-0.093,0.08l-0.097,0.074l-0.101,0.069l-0.105,0.064l-0.107,0.058l-0.111,0.051l-0.114,0.046l-0.116,0.039l-0.117,0.033l-0.12,0.027l-0.121,0.02l-0.121,0.014l-0.122,0.007l-0.123,0l-0.122,-0.007l-0.122,-0.013l-0.12,-0.019l-0.12,-0.026l-0.118,-0.033l-0.116,-0.039l-0.113,-0.045l-0.111,-0.052l-0.108,-0.057l-0.105,-0.063l-0.102,-0.069l-0.097,-0.074l-0.093,-0.079l-0.089,-0.085l-0.084,-0.088l-0.079,-0.094l-0.074,-0.097l-0.068,-0.102l-0.063,-0.105l-0.057,-0.108l-0.051,-0.111l-0.045,-0.114l-0.039,-0.116l-0.033,-0.111l-0.031,-0.094l-0.031,-0.093l-0.033,-0.093l-0.034,-0.092l-0.036,-0.092l-0.037,-0.091l-0.039,-0.09l-0.04,-0.09l-0.041,-0.09l-0.043,-0.088l-0.044,-0.088l-0.046,-0.088l-0.047,-0.086l-0.048,-0.086l-0.049,-0.085l-0.051,-0.085l-0.053,-0.084l-0.053,-0.082l-0.055,-0.083l-0.057,-0.081l-0.057,-0.08l-0.059,-0.08l-0.06,-0.079l-0.062,-0.078l-0.062,-0.077l-0.064,-0.076l-0.066,-0.076l-0.066,-0.074l-0.068,-0.073l-0.069,-0.073l-0.072,-0.072l-0.055,-0.055l-0.056,-0.054l-0.058,-0.054l-0.058,-0.053l-0.058,-0.052l-0.059,-0.052l-0.06,-0.051l-0.06,-0.05l-0.061,-0.049l-0.061,-0.048l-0.062,-0.048l-0.062,-0.047l-0.063,-0.046l-0.064,-0.045l-0.064,-0.044l-0.064,-0.044l-0.065,-0.042l-0.065,-0.042l-0.066,-0.041l-0.067,-0.041l-0.067,-0.039l-0.067,-0.039l-0.067,-0.037l-0.068,-0.037l-0.069,-0.036l-0.069,-0.036l-0.07,-0.034l-0.069,-0.033l-0.071,-0.033l-0.07,-0.032l-0.071,-0.031l-0.071,-0.03l-0.072,-0.029l-0.072,-0.028l-0.073,-0.028l-0.072,-0.026l-0.073,-0.026l-0.074,-0.025l-0.073,-0.024l-0.074,-0.023l-0.075,-0.022l-0.074,-0.021l-0.075,-0.02l-0.075,-0.02l-0.076,-0.018l-0.075,-0.018l-0.076,-0.016l-0.076,-0.016l-0.077,-0.015l-0.076,-0.014l-0.077,-0.013l-0.077,-0.011l-0.077,-0.012l-0.078,-0.01l-0.077,-0.009l-0.078,-0.008l-0.078,-0.007l-0.078,-0.007l-0.078,-0.005l-0.078,-0.004l-0.079,-0.004l-0.079,-0.002l-0.078,-0.002l-0.086,0l-1.5,0l-0.123,-0.003l-0.123,-0.011l-0.122,-0.016l-0.121,-0.024l-0.12,-0.03l-0.117,-0.037l-0.116,-0.042l-0.113,-0.05l-0.11,-0.055l-0.107,-0.061l-0.103,-0.067l-0.1,-0.073l-0.095,-0.078l-0.091,-0.083l-0.087,-0.088l-0.081,-0.092l-0.076,-0.097l-0.071,-0.101l-0.065,-0.105l-0.06,-0.107l-0.053,-0.112l-0.047,-0.113l-0.041,-0.117l-0.035,-0.118l-0.028,-0.12l-0.021,-0.121l-0.015,-0.123l-0.008,-0.123l-0.001,-0.123l0.006,-0.123l0.012,-0.123l0.019,-0.121l0.026,-0.121l0.032,-0.119l0.031,-0.104l0.038,-0.12l0.04,-0.12l0.042,-0.119l0.044,-0.118l0.045,-0.118l0.048,-0.118l0.049,-0.117l0.051,-0.116l0.053,-0.116l0.055,-0.115l0.057,-0.115l0.059,-0.113l0.06,-0.113l0.063,-0.112l0.064,-0.112l0.066,-0.11l0.069,-0.11l0.069,-0.109l0.072,-0.108l0.074,-0.107l0.075,-0.106l0.078,-0.106l0.079,-0.104l0.081,-0.103l0.083,-0.102l0.085,-0.101l0.086,-0.1l0.088,-0.098l0.09,-0.098l0.092,-0.096l0.088,-0.089l7.201,-7.201l0.088,-0.084l0.093,-0.079l0.097,-0.074l0.101,-0.068l0.104,-0.063l0.108,-0.057l0.111,-0.051l0.113,-0.045l0.115,-0.039l0.118,-0.033l0.119,-0.026l0.12,-0.019l0.121,-0.014l0.122,-0.006l0.122,0Zm-7.256,9.443l-0.068,0.07l-0.068,0.07l-0.065,0.072l-0.065,0.072l-0.063,0.072l-0.061,0.074l-0.061,0.074l-0.059,0.075l-0.057,0.076l-0.056,0.077l-0.055,0.077l-0.054,0.078l-0.052,0.078l-0.051,0.079l-0.049,0.08l-0.048,0.08l-0.047,0.081l-0.045,0.081l-0.044,0.082l-0.043,0.083l-0.041,0.083l-0.04,0.083l-0.039,0.084l-0.037,0.085l-0.036,0.085l-0.034,0.085l-0.033,0.086l-0.032,0.086l-0.03,0.086l-0.029,0.087l-0.028,0.087l-0.026,0.088l1.507,0l0.107,0.001l0.106,0.002l0.107,0.003l0.106,0.004l0.106,0.006l0.106,0.008l0.106,0.008l0.105,0.01l0.106,0.011l0.105,0.012l0.105,0.014l0.104,0.015l0.105,0.016l0.104,0.018l0.103,0.019l0.104,0.02l0.103,0.021l0.103,0.022l0.102,0.024l0.102,0.025l0.102,0.026l0.101,0.028l0.101,0.029l0.101,0.03l0.1,0.031l0.1,0.032l0.099,0.034l0.099,0.034l0.099,0.036l0.098,0.037l0.098,0.039l0.097,0.039l0.096,0.041l0.096,0.042l0.096,0.043l0.095,0.044l0.095,0.046l0.094,0.046l0.093,0.048l0.093,0.049l0.092,0.05l0.092,0.051l0.091,0.052l0.091,0.053l0.089,0.055l0.09,0.056l0.088,0.056l0.088,0.058l0.088,0.059l0.086,0.06l0.086,0.062l0.085,0.062l0.085,0.063l0.084,0.065l0.083,0.065l0.082,0.067l0.082,0.067l0.08,0.069l0.08,0.07l0.08,0.071l0.078,0.072l0.078,0.073l0.077,0.074l0.076,0.075l0.095,0.097l0.093,0.098l0.092,0.099l0.09,0.101l0.089,0.102l0.087,0.103l0.085,0.104l0.083,0.106l0.081,0.107l0.08,0.108l0.078,0.109l0.076,0.11l0.075,0.111l0.072,0.113l0.071,0.113l0.069,0.114l0.067,0.116l0.066,0.116l0.063,0.118l0.062,0.118l0.06,0.119l0.058,0.12l0.056,0.121l0.054,0.122l0.052,0.122l0.051,0.124l0.048,0.124l0.047,0.125l0.044,0.126l0.043,0.126l0.041,0.127l0.038,0.128l0.063,-0.058l0.063,-0.058l0.062,-0.059l0.061,-0.061l7.195,-7.194l-8.485,-8.485l-7.195,7.194Z" style="fill:#929386;"/><path d="M101.75,90.114c11.577,0 12.279,18.048 15,20.625c2.721,2.577 27.256,4.008 31.5,2.25c4.244,-1.758 17.32,-14.905 24,-11.25" style="fill:none;stroke:#929386;stroke-width:2.25px;"/><rect x="172.25" y="85.239" width="18" height="28.526" style="fill:none;stroke:#929386;stroke-width:2.25px;"/><path d="M101.75,11.739l94.5,72.562l0,29.464" style="fill:none;stroke:#929386;stroke-width:2.25px;"/><path d="M230.752,55.5c-2.111,13.891 2.509,27.957 12.444,37.892c9.935,9.935 24.001,14.555 37.892,12.444l-50.336,-50.336Z" style="fill:#ffc85f;stroke:#000;stroke-width:2.25px;"/><path d="M242,105.836c0,-2.28 -0.906,-4.467 -2.518,-6.079c-1.613,-1.612 -3.799,-2.518 -6.079,-2.518c-1.922,0 -3.403,0 -3.403,0l0,16.526l12,0l0,-7.929Z" style="fill:#e5e3ce;stroke:#000;stroke-width:2.25px;"/></g><path d="M255.669,80.919l17.752,-17.752" style="fill:none;stroke:#000;stroke-width:2.25px;"/></g></svg>