<?xml version="1.0" encoding="UTF-8" standalone="no"?><!DOCTYPE svg PUBLIC "-//W3C//DTD SVG 1.1//EN" "http://www.w3.org/Graphics/SVG/1.1/DTD/svg11.dtd"><svg width="100%" height="100%" viewBox="0 0 375 576" version="1.1" xmlns="http://www.w3.org/2000/svg" xmlns:xlink="http://www.w3.org/1999/xlink" xml:space="preserve" xmlns:serif="http://www.serif.com/" style="fill-rule:evenodd;clip-rule:evenodd;stroke-linejoin:round;stroke-miterlimit:2;"><rect id="sojourner-trails" x="0" y="0" width="375" height="576" style="fill:none;"/><clipPath id="_clip1"><rect x="0" y="0" width="375" height="576"/></clipPath><g clip-path="url(#_clip1)"><path d="M162.793,265.226l107.735,0l0,117.822l-10.073,0l0,32.67l-87.589,0l0,-32.67l-10.073,0l0,-117.822Z" style="fill:#434343;fill-opacity:0.2;"/><path d="M188.143,265.226l107.735,0l0,117.822l-10.073,0l0,32.67l-87.589,0l0,-32.67l-10.073,0l0,-117.822Z" style="fill:#7e5e95;"/><circle cx="294.568" cy="298.027" r="7.165" style="fill:#cfcfcf;"/><circle cx="294.568" cy="298.027" r="5.066" style="fill:#666;"/><rect x="188.143" y="0" width="27.893" height="265.226" style="fill:#a6a399;fill-opacity:0.2;"/><rect x="267.985" y="0" width="27.893" height="265.226" style="fill:#a6a399;fill-opacity:0.2;"/><path d="M279.751,582.547l-127.43,0l54.613,-166.829l18.204,0l54.613,166.829Z" style="fill:url(#_Linear2);"/><path d="M329.519,582.547l-127.43,0l54.613,-166.829l18.204,0l54.613,166.829Z" style="fill:url(#_Linear3);"/><rect x="210.596" y="400.212" width="33.052" height="9.74" style="fill:#d9d9d9;"/><rect x="232.191" y="409.951" width="8.934" height="1.622" style="fill:#838383;"/><rect x="24.448" y="292.961" width="138.345" height="5.066" style="fill:#434343;fill-opacity:0.2;"/><rect x="147.238" y="399.162" width="25.627" height="5.066" style="fill:#434343;fill-opacity:0.2;"/><rect x="128.641" y="395.898" width="18.597" height="11.593" style="fill:#434343;fill-opacity:0.2;"/></g><defs><linearGradient id="_Linear2" x1="0" y1="0" x2="1" y2="0" gradientUnits="userSpaceOnUse" gradientTransform="matrix(9.63482e-15,157.349,-157.349,9.63482e-15,216.036,415.718)"><stop offset="0" style="stop-color:#fff;stop-opacity:1"/><stop offset="1" style="stop-color:#fff;stop-opacity:0"/></linearGradient><linearGradient id="_Linear3" x1="0" y1="0" x2="1" y2="0" gradientUnits="userSpaceOnUse" gradientTransform="matrix(9.63482e-15,157.349,-157.349,9.63482e-15,265.804,415.718)"><stop offset="0" style="stop-color:#fff;stop-opacity:1"/><stop offset="1" style="stop-color:#fff;stop-opacity:0"/></linearGradient></defs></svg>