<?xml version="1.0" encoding="UTF-8" standalone="no"?><!DOCTYPE svg PUBLIC "-//W3C//DTD SVG 1.1//EN" "http://www.w3.org/Graphics/SVG/1.1/DTD/svg11.dtd"><svg width="100%" height="100%" viewBox="0 0 676 576" version="1.1" xmlns="http://www.w3.org/2000/svg" xmlns:xlink="http://www.w3.org/1999/xlink" xml:space="preserve" xmlns:serif="http://www.serif.com/" style="fill-rule:evenodd;clip-rule:evenodd;stroke-linejoin:round;stroke-miterlimit:2;"><rect id="sojourner-no-result" x="0.5" y="0" width="675" height="576" style="fill:none;"/><path d="M617,516.375l-558,0l139.5,-99l279,0l139.5,99Z" style="fill:#151410;"/><g><rect x="448.25" y="311.625" width="11.25" height="81" style="fill:#71757d;"/><rect x="450.5" y="59.625" width="6.75" height="252" style="fill:#3d3d3d;"/></g><path d="M513.479,457.875l-20.229,0l-3.573,29.25l-294.354,0l-3.573,-29.25l-20.229,0l-22.521,-99l387,0l-22.521,99Z" style="fill:#393939;"/><path d="M215.15,447.797c0.04,-1.268 -0.957,-2.297 -2.225,-2.297l-4.593,0c-1.268,0 -2.329,1.029 -2.368,2.297l-1.751,56.156c-0.04,1.268 0.957,2.297 2.225,2.297l4.593,0c1.268,0 2.329,-1.029 2.368,-2.297l1.751,-56.156Z" style="fill:#9aa0ac;"/><clipPath id="_clip1"><path d="M215.15,447.797c0.04,-1.268 -0.957,-2.297 -2.225,-2.297l-4.593,0c-1.268,0 -2.329,1.029 -2.368,2.297l-1.751,56.156c-0.04,1.268 0.957,2.297 2.225,2.297l4.593,0c1.268,0 2.329,-1.029 2.368,-2.297l1.751,-56.156Z"/></clipPath><g clip-path="url(#_clip1)"><path d="M214.031,482.63c0.039,-1.263 -0.954,-2.288 -2.217,-2.288l-4.577,0c-1.263,0 -2.32,1.025 -2.359,2.288l-0.526,16.865c-0.04,1.263 0.954,2.288 2.217,2.288l4.576,0c1.263,0 2.32,-1.025 2.36,-2.288l0.526,-16.865Z" style="fill:#ddddde;"/></g><path d="M470.194,447.744c-0.039,-1.239 0.935,-2.244 2.173,-2.244l4.488,0c1.238,0 2.275,1.005 2.313,2.244l1.755,56.262c0.038,1.239 -0.936,2.244 -2.174,2.244l-4.487,0c-1.239,0 -2.275,-1.005 -2.314,-2.244l-1.754,-56.262Z" style="fill:#9aa0ac;"/><clipPath id="_clip2"><path d="M470.194,447.744c-0.039,-1.239 0.935,-2.244 2.173,-2.244l4.488,0c1.238,0 2.275,1.005 2.313,2.244l1.755,56.262c0.038,1.239 -0.936,2.244 -2.174,2.244l-4.487,0c-1.239,0 -2.275,-1.005 -2.314,-2.244l-1.754,-56.262Z"/></clipPath><g clip-path="url(#_clip2)"><path d="M471.313,482.577c-0.039,-1.233 0.931,-2.235 2.165,-2.235l4.471,0c1.234,0 2.267,1.002 2.305,2.235l0.53,16.971c0.038,1.233 -0.932,2.235 -2.166,2.235l-4.471,0c-1.234,0 -2.267,-1.002 -2.305,-2.235l-0.529,-16.971Z" style="fill:#ddddde;"/></g><path d="M212,473.625l261,0l-4.894,42.75l-251.212,0l-4.894,-42.75Z" style="fill:#835a2c;"/><rect x="212" y="392.625" width="261" height="81" style="fill:#ffc85f;"/><g transform="matrix(0.98998,-0.141208,0.141208,0.98998,102.495,-73.2034)"><text x="32.686px" y="316.689px" style="font-family:'BarlowSemiCondensed-Black', 'Barlow Semi Condensed';font-weight:900;font-stretch:semi-condensed;font-size:100.515px;">?</text></g><g><rect x="231.875" y="221.625" width="119.25" height="41.31" style="fill:#b8b8b8;"/><rect x="231.875" y="262.935" width="119.25" height="19.44" style="fill:#5e5e5e;"/></g><circle cx="326.366" cy="242.169" r="13.986" style="fill:#51596e;"/><circle cx="330.18" cy="236.39" r="3.814" style="fill:#afb7cd;"/><path d="M271.25,272.25c0,-3.105 4.537,-5.625 10.125,-5.625c5.588,0 10.125,2.52 10.125,5.625l0,86.625l-20.25,0l0,-86.625Z" style="fill:#b1b1b1;"/><clipPath id="_clip3"><path d="M271.25,272.25c0,-3.105 4.537,-5.625 10.125,-5.625c5.588,0 10.125,2.52 10.125,5.625l0,86.625l-20.25,0l0,-86.625Z"/></clipPath><g clip-path="url(#_clip3)"><rect x="261.125" y="259.875" width="20.25" height="99" style="fill:#8e8e8d;"/></g><path d="M205.088,438.659c0,-7.739 -6.283,-14.022 -14.022,-14.022l-28.044,0c-7.739,0 -14.022,6.283 -14.022,14.022l0,74.432c0,7.739 6.283,14.022 14.022,14.022l28.044,0c7.739,0 14.022,-6.283 14.022,-14.022l0,-74.432Z" style="fill:#717171;"/><clipPath id="_clip4"><path d="M205.088,438.659c0,-7.739 -6.283,-14.022 -14.022,-14.022l-28.044,0c-7.739,0 -14.022,6.283 -14.022,14.022l0,74.432c0,7.739 6.283,14.022 14.022,14.022l28.044,0c7.739,0 14.022,-6.283 14.022,-14.022l0,-74.432Z"/></clipPath><g clip-path="url(#_clip4)"><path d="M205.088,438.659c0,-7.739 -6.283,-14.022 -14.022,-14.022l-28.044,0c-7.739,0 -14.022,6.283 -14.022,14.022l0,49.442c0,7.739 6.283,14.022 14.022,14.022l28.044,0c7.739,0 14.022,-6.283 14.022,-14.022l0,-49.442Z" style="fill:#b8bdcc;"/></g><path d="M536,438.659c0,-7.739 -6.283,-14.022 -14.022,-14.022l-28.044,0c-7.739,0 -14.022,6.283 -14.022,14.022l0,74.432c0,7.739 6.283,14.022 14.022,14.022l28.044,0c7.739,0 14.022,-6.283 14.022,-14.022l0,-74.432Z" style="fill:#717171;"/><clipPath id="_clip5"><path d="M536,438.659c0,-7.739 -6.283,-14.022 -14.022,-14.022l-28.044,0c-7.739,0 -14.022,6.283 -14.022,14.022l0,74.432c0,7.739 6.283,14.022 14.022,14.022l28.044,0c7.739,0 14.022,-6.283 14.022,-14.022l0,-74.432Z"/></clipPath><g clip-path="url(#_clip5)"><path d="M536,438.659c0,-7.739 -6.283,-14.022 -14.022,-14.022l-28.044,0c-7.739,0 -14.022,6.283 -14.022,14.022l0,49.442c0,7.739 6.283,14.022 14.022,14.022l28.044,0c7.739,0 14.022,-6.283 14.022,-14.022l0,-49.442Z" style="fill:#b8bdcc;"/></g></svg>