<?xml version="1.0" encoding="UTF-8" standalone="no"?><!DOCTYPE svg PUBLIC "-//W3C//DTD SVG 1.1//EN" "http://www.w3.org/Graphics/SVG/1.1/DTD/svg11.dtd"><svg width="100%" height="100%" viewBox="0 0 676 576" version="1.1" xmlns="http://www.w3.org/2000/svg" xmlns:xlink="http://www.w3.org/1999/xlink" xml:space="preserve" xmlns:serif="http://www.serif.com/" style="fill-rule:evenodd;clip-rule:evenodd;stroke-linejoin:round;stroke-miterlimit:2;"><rect id="sojourner-no-data" x="0.257" y="0" width="675" height="576" style="fill:none;"/><g><g><g><ellipse cx="131.586" cy="494.806" rx="30.178" ry="32.921" style="fill:#363636;"/><rect x="131.586" y="461.886" width="20.088" height="65.842" style="fill:#363636;"/><ellipse cx="151.674" cy="494.806" rx="30.178" ry="32.921" style="fill:#262626;"/></g><g><ellipse cx="253.344" cy="494.806" rx="30.178" ry="32.921" style="fill:#363636;"/><rect x="253.344" y="461.886" width="20.088" height="65.842" style="fill:#363636;"/><ellipse cx="273.432" cy="494.806" rx="30.178" ry="32.921" style="fill:#262626;"/></g><g><ellipse cx="410.462" cy="494.806" rx="30.178" ry="32.921" style="fill:#363636;"/><rect x="410.462" y="461.886" width="20.088" height="65.842" style="fill:#363636;"/><ellipse cx="430.55" cy="494.806" rx="30.178" ry="32.921" style="fill:#262626;"/></g></g><rect x="255.093" y="356.567" width="270.932" height="138.91" style="fill:#ffc85f;"/><clipPath id="_clip1"><rect x="255.093" y="356.567" width="270.932" height="138.91"/></clipPath><g clip-path="url(#_clip1)"><path d="M526.024,356.567l-43.34,138.91l-227.591,0l0,-138.91l270.931,0Z" style="fill:#835a2c;"/></g><g><rect x="145.538" y="263.299" width="10.647" height="76.656" style="fill:#71757d;"/><rect x="147.667" y="207.582" width="6.388" height="55.717" style="fill:#3d3d3d;"/><path d="M195.831,340.047l6.055,-2.035l-41.347,-123.001l-6.055,2.035l41.347,123.001Z" style="fill:#3d3d3d;"/><path d="M151.735,191.57l0.07,0.004l0.07,0.004l0.07,0.007l0.069,0.008l0.07,0.009l0.068,0.011l0.069,0.013l0.069,0.014l0.069,0.015l0.068,0.017l0.068,0.018l0.068,0.02l0.068,0.021l0.068,0.022l0.067,0.023l0.067,0.025l0.068,0.026l0.067,0.027l0.066,0.029l0.067,0.029l0.067,0.031l0.067,0.032l0.066,0.033l0.067,0.035l0.066,0.035l0.067,0.037l0.066,0.037l0.067,0.039l0.067,0.04l0.066,0.041l0.067,0.042l0.067,0.044l0.066,0.044l0.068,0.046l0.067,0.047l0.067,0.047l0.067,0.049l0.068,0.051l0.068,0.051l0.068,0.052l0.068,0.053l0.068,0.055l0.069,0.056l0.068,0.057l0.071,0.059l0.074,0.063l0.074,0.066l0.073,0.067l0.072,0.068l0.07,0.069l0.07,0.07l0.069,0.071l0.067,0.072l0.066,0.073l0.066,0.074l0.064,0.075l0.063,0.075l0.062,0.076l0.061,0.077l0.06,0.079l0.059,0.078l0.058,0.08l0.057,0.081l0.056,0.081l0.055,0.082l0.054,0.082l0.053,0.084l0.052,0.084l0.051,0.084l0.05,0.086l0.05,0.086l0.048,0.087l0.047,0.087l0.047,0.088l0.046,0.089l0.045,0.089l0.044,0.09l0.043,0.09l0.042,0.091l0.042,0.092l0.041,0.092l0.04,0.093l0.039,0.092l0.038,0.094l0.038,0.095l0.037,0.095l0.036,0.095l0.036,0.095l0.035,0.097l0.034,0.096l0.033,0.097l0.033,0.098l0.032,0.098l0.032,0.099l0.031,0.099l0.03,0.099l0.029,0.1l0.029,0.101l0.029,0.1l0.027,0.101l0.028,0.102l0.026,0.102l0.026,0.102l0.026,0.103l0.025,0.103l0.024,0.103l0.024,0.106l0.046,0.207l0.044,0.21l0.042,0.212l0.041,0.212l0.038,0.215l0.037,0.215l0.035,0.216l0.034,0.218l0.032,0.218l0.03,0.219l0.029,0.221l0.027,0.221l0.026,0.222l0.025,0.223l0.024,0.223l0.022,0.224l0.022,0.225l0.02,0.225l0.019,0.226l0.019,0.226l0.017,0.226l0.016,0.227l0.016,0.227l0.015,0.227l0.014,0.227l0.014,0.228l0.013,0.228l0.024,0.453l0.023,0.454l0.021,0.452l0.02,0.451l0.02,0.448l0.039,0.888l0.02,0.438l0.021,0.434l0.022,0.43l0.012,0.211l0.012,0.212l0.013,0.209l0.013,0.208l0.014,0.206l0.015,0.205l0.015,0.202l0.016,0.201l0.016,0.199l0.018,0.197l0.018,0.195l0.019,0.192l0.021,0.191l0.021,0.187l0.022,0.186l0.023,0.183l0.024,0.18l0.026,0.178l0.026,0.175l0.028,0.172l0.029,0.169l0.03,0.166l0.031,0.163l0.033,0.16l0.034,0.156l0.036,0.155l0.017,0.074l0.019,0.075l0.019,0.073l0.018,0.072l0.02,0.072l0.02,0.07l0.02,0.07l0.02,0.069l0.021,0.068l0.021,0.067l0.021,0.065l0.022,0.066l0.022,0.064l0.023,0.062l0.022,0.062l0.023,0.061l0.023,0.059l0.024,0.059l0.024,0.058l0.024,0.056l0.025,0.056l0.024,0.054l0.025,0.053l0.025,0.053l0.026,0.051l0.025,0.049l0.027,0.05l0.026,0.047l0.026,0.046l0.027,0.046l0.027,0.044l0.027,0.043l0.027,0.042l0.027,0.041l0.028,0.04l0.028,0.038l0.028,0.038l0.028,0.036l0.028,0.035l0.028,0.035l0.029,0.033l0.028,0.032l0.029,0.031l0.029,0.03l0.029,0.029l0.029,0.028l0.029,0.027l0.038,0.034l-1.493,1.683l-0.056,-0.049l-0.062,-0.058l-0.061,-0.059l-0.06,-0.06l-0.059,-0.061l-0.058,-0.062l-0.056,-0.064l-0.055,-0.064l-0.054,-0.065l-0.053,-0.066l-0.051,-0.067l-0.051,-0.067l-0.049,-0.069l-0.048,-0.069l-0.047,-0.071l-0.046,-0.071l-0.045,-0.071l-0.044,-0.073l-0.043,-0.073l-0.042,-0.074l-0.041,-0.075l-0.04,-0.075l-0.039,-0.076l-0.039,-0.076l-0.037,-0.077l-0.037,-0.079l-0.035,-0.078l-0.035,-0.079l-0.034,-0.08l-0.033,-0.08l-0.033,-0.081l-0.032,-0.082l-0.031,-0.081l-0.03,-0.083l-0.029,-0.083l-0.029,-0.084l-0.028,-0.084l-0.028,-0.085l-0.027,-0.085l-0.026,-0.086l-0.026,-0.087l-0.025,-0.087l-0.024,-0.087l-0.024,-0.088l-0.024,-0.089l-0.022,-0.089l-0.022,-0.089l-0.022,-0.092l-0.042,-0.18l-0.04,-0.183l-0.038,-0.186l-0.036,-0.187l-0.034,-0.19l-0.033,-0.191l-0.031,-0.193l-0.029,-0.194l-0.028,-0.197l-0.027,-0.198l-0.025,-0.199l-0.024,-0.201l-0.023,-0.203l-0.022,-0.204l-0.02,-0.206l-0.02,-0.207l-0.018,-0.208l-0.018,-0.21l-0.017,-0.211l-0.015,-0.212l-0.016,-0.213l-0.014,-0.214l-0.014,-0.215l-0.013,-0.216l-0.012,-0.217l-0.012,-0.219l-0.023,-0.437l-0.022,-0.441l-0.02,-0.443l-0.039,-0.891l-0.019,-0.447l-0.02,-0.447l-0.021,-0.446l-0.023,-0.446l-0.024,-0.446l-0.012,-0.221l-0.013,-0.221l-0.014,-0.221l-0.015,-0.219l-0.015,-0.22l-0.016,-0.218l-0.017,-0.217l-0.017,-0.217l-0.018,-0.215l-0.02,-0.215l-0.02,-0.213l-0.021,-0.212l-0.023,-0.211l-0.023,-0.21l-0.024,-0.208l-0.026,-0.206l-0.027,-0.205l-0.028,-0.203l-0.03,-0.202l-0.03,-0.2l-0.032,-0.198l-0.034,-0.196l-0.035,-0.194l-0.036,-0.191l-0.038,-0.19l-0.039,-0.188l-0.042,-0.186l-0.02,-0.09l-0.022,-0.092l-0.022,-0.09l-0.022,-0.089l-0.023,-0.09l-0.023,-0.088l-0.023,-0.088l-0.024,-0.087l-0.025,-0.087l-0.024,-0.085l-0.025,-0.085l-0.026,-0.085l-0.026,-0.084l-0.027,-0.082l-0.027,-0.083l-0.027,-0.081l-0.028,-0.081l-0.028,-0.08l-0.029,-0.079l-0.029,-0.079l-0.029,-0.078l-0.03,-0.076l-0.031,-0.076l-0.031,-0.075l-0.031,-0.075l-0.032,-0.074l-0.032,-0.072l-0.033,-0.072l-0.033,-0.071l-0.033,-0.071l-0.035,-0.069l-0.034,-0.069l-0.035,-0.068l-0.035,-0.066l-0.036,-0.066l-0.036,-0.065l-0.037,-0.064l-0.037,-0.063l-0.038,-0.063l-0.038,-0.061l-0.038,-0.061l-0.039,-0.059l-0.04,-0.059l-0.04,-0.058l-0.04,-0.057l-0.041,-0.056l-0.041,-0.055l-0.041,-0.054l-0.043,-0.053l-0.042,-0.053l-0.043,-0.052l-0.044,-0.05l-0.044,-0.05l-0.044,-0.048l-0.045,-0.048l-0.046,-0.048l-0.045,-0.045l-0.047,-0.046l-0.047,-0.044l-0.047,-0.044l-0.048,-0.042l-0.05,-0.044l-0.054,-0.045l-0.054,-0.045l-0.054,-0.043l-0.053,-0.043l-0.052,-0.041l-0.052,-0.04l-0.051,-0.038l-0.05,-0.037l-0.05,-0.036l-0.049,-0.035l-0.047,-0.033l-0.048,-0.032l-0.047,-0.032l-0.045,-0.029l-0.045,-0.028l-0.044,-0.028l-0.043,-0.026l-0.042,-0.024l-0.042,-0.024l-0.041,-0.022l-0.04,-0.021l-0.038,-0.02l-0.038,-0.019l-0.037,-0.018l-0.036,-0.017l-0.035,-0.015l-0.035,-0.015l-0.033,-0.013l-0.032,-0.013l-0.031,-0.011l-0.031,-0.011l-0.029,-0.009l-0.028,-0.009l-0.027,-0.008l-0.026,-0.007l-0.025,-0.006l-0.024,-0.005l-0.022,-0.005l-0.022,-0.004l-0.022,-0.003l-0.019,-0.003l-0.019,-0.002l-0.018,-0.002l-0.016,-0.001l-0.016,0l-0.015,-0.001l-0.014,0l-0.014,0.001l-0.012,0l-0.012,0.001l-0.011,0.002l-0.01,0.001l-0.01,0.001l-0.009,0.002l-0.01,0.002l-0.008,0.002l-0.008,0.003l-0.008,0.002l-0.008,0.003l-0.008,0.003l-0.008,0.003l-0.007,0.003l-0.008,0.003l-0.008,0.004l-0.008,0.005l-0.009,0.005l-0.009,0.005l-0.008,0.005l-0.009,0.006l-0.01,0.007l-0.01,0.008l-0.01,0.008l-0.011,0.009l-0.011,0.009l-0.011,0.01l-0.012,0.012l-0.012,0.012l-0.013,0.012l-0.012,0.014l-0.014,0.016l-0.014,0.016l-0.013,0.015l-0.014,0.019l-0.015,0.02l-0.014,0.019l-0.015,0.021l-0.015,0.023l-0.015,0.023l-0.015,0.024l-0.015,0.025l-0.016,0.027l-0.016,0.028l-0.015,0.029l-0.016,0.03l-0.016,0.031l-0.015,0.033l-0.016,0.033l-0.015,0.034l-0.016,0.036l-0.016,0.037l-0.015,0.037l-0.015,0.039l-0.015,0.04l-0.015,0.041l-0.015,0.041l-0.015,0.044l-0.015,0.044l-0.014,0.044l-0.014,0.047l-0.015,0.047l-0.013,0.048l-0.013,0.047l-0.028,0.103l-0.025,0.105l-0.025,0.109l-0.024,0.112l-0.023,0.116l-0.021,0.12l-0.021,0.123l-0.019,0.126l-0.019,0.13l-0.017,0.133l-0.015,0.136l-0.015,0.139l-0.013,0.143l-0.013,0.146l-0.01,0.148l-0.01,0.152l-0.008,0.154l-0.008,0.157l-0.005,0.16l-0.005,0.163l-0.003,0.165l-0.002,0.168l-0.001,0.171l0,0.173l0.002,0.176l0.003,0.178l0.005,0.18l0.005,0.183l0.007,0.185l0.008,0.187l0.01,0.19l0.01,0.192l0.012,0.193l0.014,0.196l0.014,0.198l0.016,0.2l0.017,0.202l0.018,0.204l0.019,0.206l0.021,0.208l0.022,0.209l0.023,0.212l0.024,0.213l0.025,0.214l0.027,0.217l0.028,0.218l0.029,0.219l0.03,0.222l0.032,0.222l0.032,0.224l0.034,0.226l0.035,0.227l0.036,0.228l0.037,0.23l0.039,0.231l0.039,0.232l0.041,0.233l0.042,0.235l0.043,0.236l0.044,0.237l0.045,0.238l0.046,0.239l0.047,0.24l0.049,0.24l0.049,0.242l0.051,0.243l0.051,0.244l0.053,0.244l0.054,0.245l0.055,0.246l0.056,0.247l0.057,0.249l-2.193,0.505l-0.058,-0.253l-0.057,-0.254l-0.057,-0.254l-0.055,-0.253l-0.055,-0.252l-0.053,-0.251l-0.052,-0.251l-0.051,-0.249l-0.05,-0.249l-0.049,-0.248l-0.048,-0.247l-0.047,-0.246l-0.045,-0.245l-0.045,-0.244l-0.043,-0.243l-0.042,-0.242l-0.041,-0.241l-0.04,-0.24l-0.039,-0.238l-0.037,-0.237l-0.037,-0.236l-0.035,-0.235l-0.034,-0.234l-0.032,-0.232l-0.032,-0.23l-0.03,-0.23l-0.029,-0.228l-0.028,-0.226l-0.027,-0.225l-0.026,-0.224l-0.024,-0.222l-0.023,-0.22l-0.021,-0.219l-0.021,-0.217l-0.019,-0.216l-0.018,-0.214l-0.017,-0.212l-0.015,-0.21l-0.014,-0.209l-0.013,-0.207l-0.011,-0.205l-0.01,-0.203l-0.009,-0.201l-0.007,-0.2l-0.007,-0.197l-0.004,-0.196l-0.004,-0.193l-0.002,-0.192l0,-0.19l0.001,-0.187l0.002,-0.186l0.004,-0.183l0.005,-0.181l0.006,-0.18l0.008,-0.177l0.01,-0.175l0.011,-0.172l0.012,-0.172l0.014,-0.168l0.016,-0.166l0.017,-0.164l0.019,-0.162l0.02,-0.159l0.023,-0.158l0.023,-0.155l0.026,-0.153l0.027,-0.151l0.029,-0.148l0.031,-0.147l0.033,-0.143l0.035,-0.142l0.036,-0.137l0.02,-0.072l0.02,-0.068l0.02,-0.068l0.021,-0.067l0.021,-0.067l0.022,-0.066l0.023,-0.065l0.023,-0.066l0.024,-0.064l0.024,-0.064l0.025,-0.064l0.026,-0.063l0.026,-0.062l0.027,-0.062l0.028,-0.061l0.028,-0.061l0.03,-0.06l0.03,-0.06l0.03,-0.059l0.032,-0.058l0.032,-0.058l0.033,-0.057l0.034,-0.057l0.035,-0.056l0.037,-0.056l0.036,-0.054l0.038,-0.054l0.039,-0.054l0.04,-0.052l0.04,-0.052l0.043,-0.052l0.043,-0.051l0.043,-0.049l0.046,-0.049l0.046,-0.048l0.048,-0.047l0.048,-0.046l0.05,-0.045l0.051,-0.045l0.053,-0.043l0.053,-0.041l0.054,-0.041l0.056,-0.039l0.056,-0.038l0.059,-0.037l0.059,-0.035l0.06,-0.034l0.061,-0.032l0.062,-0.031l0.063,-0.029l0.064,-0.027l0.065,-0.026l0.065,-0.024l0.066,-0.022l0.067,-0.021l0.068,-0.018l0.068,-0.017l0.068,-0.015l0.069,-0.013l0.069,-0.011l0.07,-0.009l0.07,-0.008l0.069,-0.006l0.07,-0.003l0.071,-0.003l0.069,0l0.07,0.001Z" style="fill:#393939;"/></g><rect x="150.861" y="356.567" width="104.232" height="138.91" style="fill:#564d44;"/><rect x="447.665" y="239.992" width="18.23" height="99.963" style="fill:#767676;"/><path d="M465.895,239.992l0,0c-6.099,0 -11.043,4.944 -11.043,11.043l0,88.92l11.043,0l0,-99.963Z" style="fill:#dadada;"/><path d="M373.843,482.126l-9.96,14.739l-41.443,-28.007l-52.014,26.245l-8.013,-15.881l61.335,-30.949c16.699,11.285 33.397,22.569 50.095,33.853Z" style="fill:#393939;"/><path d="M539.685,489.612l-14.44,10.389l-57.263,-79.596l-142.116,46.612l-5.544,-16.902l154.493,-50.672c21.623,30.057 43.246,60.113 64.87,90.169Z" style="fill:#393939;"/><path d="M479.656,230.04l0.517,0.017l0.51,0.017l0.504,0.018l0.497,0.019l0.49,0.018l0.483,0.02l0.477,0.02l0.471,0.02l0.463,0.022l0.458,0.022l0.451,0.023l0.444,0.023l0.438,0.024l0.431,0.025l0.425,0.026l0.419,0.027l0.412,0.028l0.406,0.028l0.4,0.03l0.393,0.031l0.388,0.031l0.381,0.033l0.374,0.034l0.369,0.035l0.363,0.036l0.356,0.037l0.35,0.038l0.345,0.04l0.338,0.041l0.333,0.042l0.326,0.044l0.321,0.045l0.313,0.046l0.157,0.024l0.153,0.025l0.153,0.024l0.151,0.025l0.149,0.025l0.148,0.026l0.147,0.026l0.145,0.027l0.143,0.027l0.143,0.027l0.141,0.028l0.139,0.028l0.139,0.029l0.136,0.029l0.135,0.029l0.134,0.03l0.133,0.031l0.132,0.031l0.129,0.031l0.129,0.032l0.127,0.032l0.126,0.033l0.124,0.034l0.124,0.034l0.122,0.034l0.12,0.035l0.119,0.036l0.118,0.036l0.117,0.036l0.115,0.037l0.115,0.038l0.112,0.038l0.112,0.039l0.11,0.04l0.109,0.04l0.108,0.041l0.106,0.041l0.105,0.043l0.104,0.042l0.103,0.044l0.102,0.044l0.1,0.045l0.099,0.046l0.098,0.046l0.096,0.047l0.096,0.048l0.094,0.049l0.093,0.049l0.091,0.051l0.091,0.051l0.089,0.052l0.088,0.053l0.087,0.054l0.085,0.054l0.085,0.056l0.083,0.056l0.081,0.058l0.081,0.058l0.079,0.06l0.078,0.06l0.077,0.062l0.075,0.062l0.074,0.063l0.073,0.065l0.071,0.066l0.069,0.066l0.069,0.068l0.067,0.069l0.066,0.07l0.064,0.071l0.062,0.072l0.061,0.073l0.06,0.074l0.057,0.075l0.057,0.076l0.055,0.078l0.053,0.079l0.051,0.079l0.049,0.08l0.048,0.081l0.046,0.083l0.045,0.084l0.042,0.083l0.041,0.085l0.038,0.086l0.038,0.087l0.035,0.087l0.033,0.088l0.032,0.09l0.029,0.089l0.028,0.09l0.026,0.091l0.024,0.091l0.023,0.092l0.02,0.093l0.019,0.093l0.017,0.093l0.015,0.094l0.013,0.095l0.012,0.094l0.009,0.095l0.008,0.096l0.007,0.096l0.005,0.097l0.003,0.096l0.001,0.097l0,0.097l-0.002,0.098l-0.003,0.098l-0.005,0.099l-0.007,0.099l-0.008,0.099l-0.009,0.099l-0.011,0.1l-0.013,0.1l-0.014,0.101l-0.015,0.1l-0.017,0.102l-0.018,0.101l-0.019,0.102l-0.021,0.102l-0.022,0.103l-0.024,0.104l-0.024,0.103l-0.027,0.104l-0.027,0.104l-0.029,0.105l-0.03,0.106l-0.031,0.105l-0.033,0.107l-0.034,0.107l-0.035,0.107l-0.036,0.108l-0.038,0.109l-0.039,0.109l-0.04,0.109l-0.041,0.111l-0.043,0.11l-0.043,0.111l-0.045,0.112l-0.046,0.113l-0.048,0.113l-0.048,0.114l-0.05,0.114l-0.051,0.116l-0.052,0.115l-0.053,0.116l-0.054,0.117l-0.056,0.118l-0.057,0.119l-0.057,0.119l-0.06,0.119l-0.06,0.121l-0.061,0.121l-0.062,0.122l-0.064,0.123l-0.065,0.123l-0.066,0.125l-0.067,0.125l-0.068,0.125l-0.069,0.127l-0.071,0.127l-0.071,0.128l-0.073,0.13l-0.149,0.26l-0.153,0.263l-0.158,0.267l-0.162,0.27l-0.166,0.274l-0.171,0.277l-0.176,0.28l-0.18,0.285l-0.184,0.287l-0.188,0.292l-0.193,0.295l-0.198,0.299l-0.102,0.153l-0.104,0.154l-0.104,0.152l-0.106,0.152l-0.106,0.151l-0.107,0.15l-0.108,0.15l-0.109,0.149l-0.109,0.149l-0.111,0.148l-0.111,0.147l-0.112,0.146l-0.113,0.146l-0.114,0.145l-0.114,0.145l-0.116,0.144l-0.116,0.144l-0.116,0.143l-0.118,0.142l-0.118,0.141l-0.119,0.141l-0.119,0.141l-0.121,0.14l-0.121,0.139l-0.121,0.139l-0.123,0.138l-0.123,0.138l-0.123,0.137l-0.124,0.136l-0.125,0.136l-0.126,0.136l-0.126,0.135l-0.126,0.134l-0.128,0.134l-0.127,0.134l-0.129,0.132l-0.129,0.133l-0.129,0.132l-0.13,0.131l-0.131,0.131l-0.13,0.131l-0.132,0.13l-0.132,0.129l-0.133,0.129l-0.132,0.129l-0.134,0.128l-0.134,0.128l-0.134,0.127l-0.135,0.127l-0.135,0.127l-0.136,0.126l-0.137,0.126l-0.272,0.25l-0.275,0.248l-0.276,0.247l-0.278,0.246l-0.278,0.244l-0.28,0.242l-0.282,0.242l-0.282,0.24l-0.283,0.238l-0.284,0.238l-0.285,0.236l-0.286,0.235l-0.287,0.235l-0.287,0.233l-0.287,0.232l-0.288,0.231l-0.289,0.23l-0.288,0.229l-0.289,0.229l-0.29,0.227l-0.289,0.227l-0.289,0.227l-0.578,0.45l-0.578,0.448l-1.15,0.89l-0.571,0.443l-0.568,0.442l-0.565,0.441l-0.28,0.22l-0.28,0.221l-0.278,0.22l-0.276,0.22l-0.276,0.22l-0.274,0.221l-0.272,0.22l-0.271,0.221l-0.269,0.221l-0.267,0.221l-0.265,0.221l-0.264,0.222l-0.261,0.222l-0.259,0.222l-0.258,0.223l-0.255,0.223l-0.252,0.224l-0.251,0.224l-0.248,0.224l-0.246,0.226l-0.121,0.112l-0.121,0.113l-0.12,0.114l-0.12,0.113l-0.119,0.113l-0.118,0.114l-0.118,0.114l-0.117,0.114l-0.116,0.114l-0.116,0.114l-0.114,0.115l-0.114,0.115l-0.114,0.115l-0.112,0.115l-0.112,0.115l-0.111,0.116l-0.11,0.116l-0.109,0.116l-0.109,0.116l-0.107,0.116l-0.107,0.117l-0.106,0.117l-0.106,0.117l-0.104,0.118l-0.103,0.117l-0.103,0.118l-0.102,0.119l-0.101,0.118l-0.1,0.118l-0.099,0.12l-0.098,0.119l-0.097,0.119l-0.097,0.12l-0.095,0.12l-0.094,0.12l-0.094,0.121l-0.093,0.121l-0.091,0.121l-0.091,0.122l-0.09,0.122l-0.088,0.122l-0.088,0.123l-0.087,0.122l-0.085,0.123l-0.085,0.124l-0.084,0.124l-0.082,0.124l-0.082,0.124l-0.08,0.125l-0.08,0.125l-0.078,0.126l-0.077,0.125l-0.077,0.127l-0.075,0.127l-0.074,0.126l-0.073,0.128l-0.072,0.128l-0.071,0.128l-0.069,0.128l-0.069,0.129l-0.067,0.13l-0.067,0.13l-0.065,0.13l-0.064,0.13l-0.063,0.131l-0.061,0.132l-0.061,0.132l-0.059,0.132l-0.059,0.133l-0.057,0.133l-0.055,0.134l-0.055,0.134l-0.053,0.135l-0.053,0.135l-0.051,0.136l-0.049,0.136l-0.049,0.137l-0.047,0.137l-0.046,0.138l-0.045,0.138l-0.044,0.139l-0.042,0.139l-0.041,0.14l-0.039,0.141l-0.039,0.141l-0.037,0.142l-0.036,0.142l-0.034,0.143l-0.034,0.143l-0.031,0.144l-0.031,0.145l-0.03,0.147l-0.059,0.309l-0.06,0.318l-0.06,0.325l-0.059,0.332l-0.059,0.338l-0.059,0.346l-0.058,0.352l-0.059,0.358l-0.057,0.364l-0.058,0.371l-0.057,0.377l-0.057,0.383l-0.057,0.389l-0.056,0.395l-0.056,0.4l-0.055,0.407l-0.055,0.411l-0.055,0.417l-0.054,0.423l-0.053,0.427l-0.054,0.433l-0.053,0.437l-0.052,0.443l-0.052,0.448l-0.052,0.452l-0.051,0.456l-0.051,0.462l-0.05,0.465l-0.05,0.47l-0.049,0.474l-0.048,0.479l-0.049,0.482l-0.047,0.486l-0.047,0.49l-0.047,0.494l-0.046,0.498l-0.046,0.501l-0.045,0.504l-0.044,0.508l-0.044,0.511l-0.043,0.514l-0.043,0.517l-0.042,0.52l-0.041,0.523l-0.041,0.526l-0.041,0.528l-0.039,0.531l-0.039,0.534l-0.039,0.536l-0.037,0.538l-0.038,0.54l-0.036,0.542l-0.036,0.544l-0.035,0.547l-0.034,0.548l-0.034,0.549l-0.033,0.552l-0.033,0.552l-0.031,0.554l-0.031,0.556l-0.03,0.556l-0.03,0.558l-0.029,0.559l-0.028,0.56l-0.027,0.56l-0.027,0.561l-0.025,0.562l-0.025,0.562l-0.025,0.563l-0.023,0.563l-0.023,0.564l-0.021,0.563l-0.022,0.564l-0.02,0.563l-0.019,0.563l-0.019,0.563l-0.018,0.563l-0.016,0.562l-0.016,0.562l-0.016,0.561l-0.014,0.561l-0.014,0.559l-0.012,0.559l-0.012,0.557l-0.011,0.557l-0.01,0.555l-0.009,0.554l-0.008,0.553l-0.007,0.551l-0.006,0.549l-0.006,0.548l-0.004,0.546l-0.003,0.544l-0.003,0.542l-0.002,0.539l0,0.538l0,0.536l0.002,0.533l0.002,0.53l0.003,0.528l0.005,0.526l0.005,0.522l0.006,0.52l0.008,0.517l0.008,0.513l0.01,0.511l0.01,0.507l0.012,0.504l0.012,0.5l0.014,0.497l0.015,0.493l0.015,0.49l0.017,0.485l0.018,0.482l0.019,0.477l0.021,0.474l0.021,0.469l0.022,0.465l0.024,0.46l0.024,0.456l0.026,0.451l0.027,0.446l0.028,0.442l0.029,0.436l0.031,0.432l0.031,0.426l0.033,0.421l0.034,0.418l-2.243,0.183l-0.034,-0.422l-0.034,-0.43l-0.032,-0.434l-0.03,-0.44l-0.03,-0.444l-0.029,-0.449l-0.027,-0.453l-0.026,-0.458l-0.025,-0.463l-0.024,-0.467l-0.023,-0.471l-0.021,-0.475l-0.021,-0.48l-0.019,-0.483l-0.018,-0.488l-0.017,-0.491l-0.016,-0.495l-0.015,-0.498l-0.014,-0.502l-0.013,-0.506l-0.011,-0.509l-0.011,-0.512l-0.009,-0.515l-0.009,-0.519l-0.007,-0.521l-0.007,-0.524l-0.005,-0.527l-0.005,-0.53l-0.003,-0.533l-0.002,-0.534l-0.002,-0.538l0,-0.539l0,-0.542l0.002,-0.544l0.003,-0.546l0.003,-0.548l0.004,-0.549l0.006,-0.552l0.006,-0.553l0.007,-0.555l0.009,-0.556l0.009,-0.557l0.01,-0.559l0.011,-0.56l0.011,-0.561l0.013,-0.562l0.014,-0.563l0.014,-0.564l0.015,-0.565l0.017,-0.564l0.017,-0.566l0.017,-0.566l0.019,-0.567l0.02,-0.566l0.02,-0.567l0.021,-0.566l0.022,-0.567l0.023,-0.567l0.023,-0.566l0.025,-0.566l0.025,-0.565l0.026,-0.565l0.027,-0.565l0.027,-0.563l0.028,-0.563l0.029,-0.562l0.03,-0.561l0.03,-0.56l0.031,-0.558l0.032,-0.558l0.033,-0.556l0.033,-0.554l0.034,-0.553l0.035,-0.551l0.035,-0.549l0.036,-0.548l0.037,-0.546l0.037,-0.543l0.038,-0.542l0.039,-0.539l0.039,-0.536l0.04,-0.535l0.04,-0.532l0.041,-0.529l0.042,-0.526l0.043,-0.524l0.043,-0.521l0.043,-0.518l0.044,-0.514l0.045,-0.512l0.045,-0.508l0.046,-0.505l0.047,-0.501l0.047,-0.498l0.047,-0.494l0.048,-0.491l0.049,-0.486l0.049,-0.483l0.05,-0.478l0.05,-0.475l0.05,-0.47l0.052,-0.466l0.051,-0.461l0.052,-0.457l0.053,-0.452l0.053,-0.448l0.054,-0.443l0.054,-0.438l0.054,-0.433l0.055,-0.428l0.056,-0.423l0.055,-0.417l0.057,-0.413l0.056,-0.407l0.057,-0.401l0.058,-0.396l0.058,-0.39l0.058,-0.384l0.059,-0.378l0.059,-0.373l0.059,-0.366l0.06,-0.36l0.061,-0.355l0.06,-0.347l0.061,-0.342l0.062,-0.335l0.062,-0.328l0.062,-0.324l0.033,-0.165l0.035,-0.166l0.037,-0.165l0.038,-0.165l0.04,-0.164l0.041,-0.163l0.042,-0.163l0.044,-0.162l0.046,-0.161l0.047,-0.16l0.048,-0.16l0.05,-0.159l0.051,-0.158l0.053,-0.158l0.054,-0.157l0.056,-0.156l0.056,-0.156l0.059,-0.155l0.059,-0.154l0.061,-0.153l0.062,-0.153l0.064,-0.152l0.064,-0.152l0.067,-0.151l0.067,-0.15l0.069,-0.149l0.069,-0.149l0.071,-0.148l0.073,-0.148l0.073,-0.147l0.075,-0.146l0.076,-0.146l0.077,-0.145l0.078,-0.144l0.08,-0.144l0.081,-0.143l0.081,-0.143l0.083,-0.142l0.084,-0.141l0.085,-0.141l0.086,-0.14l0.087,-0.14l0.089,-0.139l0.089,-0.138l0.09,-0.138l0.092,-0.137l0.092,-0.137l0.093,-0.136l0.095,-0.136l0.095,-0.135l0.096,-0.135l0.098,-0.134l0.098,-0.133l0.099,-0.133l0.1,-0.133l0.101,-0.132l0.102,-0.131l0.103,-0.131l0.104,-0.131l0.104,-0.13l0.106,-0.129l0.106,-0.13l0.107,-0.128l0.108,-0.128l0.109,-0.128l0.11,-0.127l0.11,-0.127l0.111,-0.127l0.112,-0.126l0.113,-0.125l0.114,-0.125l0.114,-0.125l0.115,-0.125l0.116,-0.124l0.116,-0.123l0.118,-0.124l0.117,-0.122l0.119,-0.123l0.119,-0.122l0.12,-0.122l0.12,-0.121l0.122,-0.121l0.122,-0.121l0.122,-0.12l0.123,-0.12l0.124,-0.12l0.125,-0.119l0.124,-0.12l0.126,-0.118l0.126,-0.119l0.127,-0.118l0.128,-0.119l0.255,-0.234l0.258,-0.234l0.261,-0.233l0.262,-0.232l0.264,-0.231l0.266,-0.231l0.268,-0.229l0.269,-0.229l0.271,-0.228l0.273,-0.227l0.274,-0.227l0.275,-0.226l0.276,-0.225l0.278,-0.225l0.279,-0.224l0.28,-0.225l0.281,-0.223l0.282,-0.224l0.283,-0.223l0.284,-0.223l0.569,-0.445l0.572,-0.444l0.573,-0.445l1.15,-0.89l0.575,-0.446l0.574,-0.447l0.287,-0.224l0.286,-0.225l0.286,-0.225l0.285,-0.225l0.285,-0.227l0.284,-0.226l0.283,-0.227l0.283,-0.228l0.281,-0.229l0.281,-0.229l0.28,-0.23l0.278,-0.231l0.277,-0.232l0.276,-0.233l0.275,-0.233l0.273,-0.235l0.272,-0.235l0.27,-0.237l0.269,-0.237l0.267,-0.239l0.265,-0.24l0.264,-0.241l0.13,-0.121l0.13,-0.121l0.13,-0.121l0.13,-0.122l0.129,-0.122l0.128,-0.123l0.128,-0.123l0.127,-0.123l0.127,-0.123l0.126,-0.124l0.125,-0.124l0.126,-0.125l0.124,-0.125l0.124,-0.125l0.123,-0.126l0.123,-0.126l0.122,-0.126l0.121,-0.127l0.121,-0.127l0.12,-0.127l0.12,-0.128l0.118,-0.129l0.119,-0.128l0.117,-0.13l0.117,-0.129l0.116,-0.13l0.115,-0.13l0.115,-0.131l0.114,-0.131l0.113,-0.132l0.112,-0.132l0.112,-0.132l0.111,-0.133l0.11,-0.134l0.109,-0.134l0.109,-0.134l0.108,-0.134l0.107,-0.136l0.106,-0.136l0.105,-0.136l0.105,-0.136l0.104,-0.138l0.102,-0.137l0.103,-0.138l0.101,-0.139l0.1,-0.139l0.1,-0.14l0.098,-0.14l0.098,-0.141l0.097,-0.141l0.095,-0.142l0.096,-0.142l0.191,-0.29l0.187,-0.287l0.183,-0.282l0.178,-0.278l0.174,-0.274l0.168,-0.27l0.164,-0.266l0.16,-0.262l0.154,-0.257l0.15,-0.254l0.145,-0.249l0.141,-0.247l0.068,-0.12l0.067,-0.12l0.066,-0.119l0.064,-0.118l0.064,-0.117l0.062,-0.116l0.061,-0.115l0.06,-0.114l0.058,-0.113l0.058,-0.112l0.056,-0.111l0.055,-0.11l0.053,-0.109l0.053,-0.108l0.051,-0.107l0.05,-0.106l0.049,-0.104l0.047,-0.104l0.046,-0.103l0.045,-0.102l0.044,-0.1l0.042,-0.1l0.041,-0.098l0.04,-0.098l0.039,-0.097l0.038,-0.095l0.036,-0.095l0.035,-0.093l0.034,-0.092l0.032,-0.092l0.032,-0.09l0.03,-0.089l0.028,-0.088l0.028,-0.087l0.026,-0.085l0.025,-0.085l0.024,-0.084l0.023,-0.082l0.021,-0.082l0.02,-0.08l0.02,-0.08l0.017,-0.078l0.017,-0.077l0.015,-0.075l0.015,-0.075l0.013,-0.074l0.012,-0.073l0.011,-0.071l0.009,-0.07l0.009,-0.069l0.007,-0.069l0.007,-0.067l0.005,-0.065l0.004,-0.065l0.004,-0.064l0.002,-0.062l0.001,-0.061l0,-0.06l-0.001,-0.06l-0.002,-0.059l-0.002,-0.056l-0.004,-0.056l-0.005,-0.055l-0.006,-0.055l-0.006,-0.053l-0.007,-0.052l-0.008,-0.051l-0.01,-0.051l-0.01,-0.049l-0.01,-0.049l-0.012,-0.047l-0.012,-0.047l-0.014,-0.047l-0.014,-0.045l-0.015,-0.046l-0.015,-0.044l-0.017,-0.044l-0.017,-0.043l-0.018,-0.043l-0.02,-0.042l-0.02,-0.042l-0.021,-0.042l-0.022,-0.041l-0.022,-0.04l-0.024,-0.041l-0.025,-0.04l-0.026,-0.041l-0.027,-0.039l-0.028,-0.039l-0.029,-0.04l-0.03,-0.04l-0.032,-0.039l-0.032,-0.039l-0.034,-0.039l-0.035,-0.039l-0.037,-0.039l-0.037,-0.038l-0.039,-0.039l-0.041,-0.039l-0.042,-0.039l-0.043,-0.038l-0.045,-0.038l-0.047,-0.039l-0.047,-0.038l-0.049,-0.038l-0.051,-0.038l-0.052,-0.038l-0.055,-0.038l-0.055,-0.038l-0.057,-0.038l-0.059,-0.037l-0.06,-0.038l-0.062,-0.037l-0.064,-0.037l-0.065,-0.037l-0.067,-0.036l-0.068,-0.037l-0.071,-0.036l-0.071,-0.037l-0.074,-0.035l-0.075,-0.036l-0.077,-0.035l-0.079,-0.036l-0.08,-0.035l-0.081,-0.034l-0.084,-0.035l-0.085,-0.034l-0.087,-0.034l-0.089,-0.033l-0.09,-0.034l-0.092,-0.033l-0.094,-0.032l-0.095,-0.033l-0.097,-0.032l-0.099,-0.032l-0.1,-0.031l-0.102,-0.031l-0.104,-0.031l-0.106,-0.031l-0.106,-0.03l-0.109,-0.03l-0.111,-0.03l-0.112,-0.029l-0.113,-0.029l-0.116,-0.028l-0.117,-0.029l-0.119,-0.028l-0.12,-0.027l-0.122,-0.028l-0.124,-0.027l-0.125,-0.026l-0.127,-0.027l-0.129,-0.026l-0.13,-0.025l-0.132,-0.026l-0.134,-0.025l-0.135,-0.025l-0.137,-0.024l-0.139,-0.024l-0.14,-0.024l-0.142,-0.023l-0.144,-0.023l-0.145,-0.023l-0.146,-0.023l-0.299,-0.044l-0.306,-0.043l-0.312,-0.042l-0.318,-0.04l-0.325,-0.04l-0.332,-0.038l-0.339,-0.037l-0.345,-0.036l-0.351,-0.035l-0.359,-0.034l-0.365,-0.033l-0.371,-0.032l-0.378,-0.03l-0.385,-0.03l-0.392,-0.029l-0.398,-0.028l-0.405,-0.028l-0.412,-0.026l-0.419,-0.026l-0.425,-0.024l-0.432,-0.024l-0.438,-0.023l-0.446,-0.023l-0.452,-0.022l-0.459,-0.021l-0.466,-0.02l-0.473,-0.02l-0.48,-0.019l-0.486,-0.019l-0.493,-0.018l-0.501,-0.018l-0.507,-0.017l-0.514,-0.017l-0.521,-0.016l0.07,-2.249l0.523,0.016Z" style="fill:#393939;"/><rect x="22.961" y="339.955" width="542.136" height="16.612" style="fill:#51596e;"/><rect x="22.961" y="339.955" width="193.862" height="16.612" style="fill:#383838;"/><g><ellipse cx="237.061" cy="494.806" rx="30.178" ry="32.921" style="fill:#363636;"/><rect x="237.061" y="461.886" width="20.088" height="65.842" style="fill:#363636;"/><ellipse cx="257.149" cy="494.806" rx="30.178" ry="32.921" style="fill:#969696;"/></g><g><ellipse cx="358.819" cy="494.806" rx="30.178" ry="32.921" style="fill:#363636;"/><rect x="358.819" y="461.886" width="20.088" height="65.842" style="fill:#363636;"/><ellipse cx="378.907" cy="494.806" rx="30.178" ry="32.921" style="fill:#969696;"/></g><g><ellipse cx="515.937" cy="494.806" rx="30.178" ry="32.921" style="fill:#363636;"/><rect x="515.937" y="461.886" width="20.088" height="65.842" style="fill:#363636;"/><ellipse cx="536.025" cy="494.806" rx="30.178" ry="32.921" style="fill:#969696;"/></g><g><rect x="394.887" y="197.705" width="99.084" height="42.287" style="fill:#767676;"/><rect x="493.971" y="197.705" width="27.48" height="42.287" style="fill:#dadada;"/><ellipse cx="471.402" cy="218.702" rx="11.051" ry="12.446" style="fill:#262626;"/><ellipse cx="475.185" cy="212.589" rx="2.389" ry="2.691" style="fill:#dadada;"/></g></g><path d="M128.99,170.329l-3.628,8.906l24.014,8.246l-20.386,-17.152Z" style="fill:#ffc85f;"/><path d="M139.903,148.48l9.473,31.988l0,-25.859l-9.473,-6.129Z" style="fill:#ffc85f;"/><path d="M161.894,161.481l-7.41,26l12.596,-19.872l-5.186,-6.128Z" style="fill:#ffc85f;"/><text x="509.8px" y="170.886px" style="font-family:'BarlowSemiCondensed-Bold', 'Barlow Semi Condensed';font-weight:700;font-stretch:semi-condensed;font-size:74.682px;">!</text></svg>